<?xml version="1.0" encoding="UTF-8" standalone="no"?>
<svg width="32px" height="32px" viewBox="0 0 32 32" version="1.1" xmlns="http://www.w3.org/2000/svg" xmlns:xlink="http://www.w3.org/1999/xlink">
    <!-- Generator: Sketch 49 (51002) - http://www.bohemiancoding.com/sketch -->
    <title>icons/consumer_protection_white</title>
    <desc>Created with Sketch.</desc>
    <defs></defs>
    <g id="icons/consumer_protection_white" stroke="none" stroke-width="1" fill="none" fill-rule="evenodd">
        <rect id="Rectangle-2" x="0" y="0" width="32" height="32"></rect>
        <path d="M30.6666667,30.6666667 L1.33333333,30.6666667 L1.33333333,29.4335735 L2.81073109,23.6973074 C2.81073109,23.6973074 2.37292336,22.7860846 4.61663046,21.8211233 L10.034789,18.8724709 C10.034789,18.8724709 11.8407191,16.7817163 12.004755,16.5673231 C12.2786189,16.299209 13.8654455,16.245689 13.3182089,15.4950617 C12.6616354,14.851764 12.114276,13.9941026 11.7312594,13.0291264 L11.6217384,13.0291264 C11.5669779,12.7610094 11.5121868,12.6001776 11.4575183,12.6001776 C11.4575183,12.6001776 11.1291702,12.7074776 10.8557054,11.5816844 C10.8557054,11.5816844 8.83067191,9.0084461 10.6913625,9.0084461 C10.6913625,9.0084461 8.94019291,5.57755237 11.7860506,3.05783412 C11.7860506,3.05783412 14.9601337,-0.212245516 18.9004034,2.25367501 C18.9004034,2.25367501 19.5023391,2.52180683 20.1044898,3.21865117 C20.3231941,3.43300005 20.4875063,3.54030005 20.4875063,3.54030005 C23.1690211,6.1135383 21.3083306,9.43739792 21.3083306,9.43739792 C23.1690211,9.54444385 21.034835,11.9568503 21.034835,11.9568503 C20.8705228,12.5466457 20.7609711,12.7610094 20.6515729,12.8683094 C20.268495,13.9941026 19.666682,14.9055322 18.9550411,15.5488594 C17.860445,16.299209 18.517264,16.0848572 19.6119215,16.6746527 L21.9649041,18.8724709 L27.3830626,21.8211233 C29.6267697,22.7860846 29.188962,23.6973074 29.188962,23.6973074 L30.6666667,29.4335735 L30.6666667,30.6666667 Z" id="Fill-2120" fill="#FFFFFF"></path>
    </g>
</svg>