<?xml version="1.0" encoding="UTF-8" standalone="no"?>
<svg width="32px" height="32px" viewBox="0 0 32 32" version="1.1" xmlns="http://www.w3.org/2000/svg" xmlns:xlink="http://www.w3.org/1999/xlink">
    <!-- Generator: Sketch 48.1 (47250) - http://www.bohemiancoding.com/sketch -->
    <title>icons/ecosystem</title>
    <desc>Created with Sketch.</desc>
    <defs></defs>
    <g id="Symbols" stroke="none" stroke-width="1" fill="none" fill-rule="evenodd">
        <g id="icons/ecosystem">
            <rect id="Rectangle-2" x="0" y="0" width="32" height="32"></rect>
            <path d="M13.3279459,10.5000028 C13.7259149,10.5000028 14.1238838,10.557195 14.5217894,10.6718328 L16.5682876,10.0416414 L17.5915367,8.60922258 C17.7051923,8.43737667 17.9325352,8.43737667 18.1031296,8.55201454 C18.2737239,8.66665241 18.2737239,8.89570634 18.1600683,9.0675364 L17.0798805,10.6143872 L16.9662248,12.3333215 C17.5915367,13.0778972 17.9325352,14.0520023 17.9325352,15.1405233 C17.9325352,17.7186713 15.886037,19.8385213 13.3279459,19.8385213 C10.7698549,19.8385213 8.66663973,17.7186713 8.66663973,15.1405233 C8.66663973,12.5623754 10.7698549,10.5000028 13.3279459,10.5000028 Z M18.6716928,12.9060672 L20.4909432,12.3333215 C20.7181911,12.2758948 20.9455023,12.3905327 21.0025361,12.5623754 C21.0591896,12.7916511 20.9455023,12.9635129 20.7181911,13.0207051 L18.8990358,13.6508965 L18.7853801,13.6508965 C18.6716928,13.6508965 18.5010985,13.5936853 18.4443499,13.4218425 C18.3874112,13.1925351 18.5010985,13.0207051 18.6716928,12.9060672 Z M21.0025361,17.5468412 C20.9455023,17.7186713 20.774908,17.7758952 20.6045038,17.7758952 L20.4909432,17.7758952 L18.6716928,17.202896 C18.5010985,17.1457038 18.3874112,16.9166815 18.4443499,16.6873741 C18.5010985,16.5155282 18.7284097,16.4008903 18.8990358,16.4583202 L20.7181911,17.0310659 C20.9455023,17.1457038 21.0591896,17.3175338 21.0025361,17.5468412 Z M18.1600683,21.0416676 C18.2737239,21.2135103 18.2737239,21.4425325 18.1031296,21.5572021 L17.875755,21.6143816 C17.762131,21.6143816 17.6484437,21.5572021 17.5915367,21.4999909 L16.4546003,19.8956945 C16.340913,19.7238517 16.340913,19.494576 16.511539,19.3801599 C16.6819432,19.2655221 16.9092861,19.3227333 17.0231636,19.494576 L18.1600683,21.0416676 Z M13.7828219,20.7551616 L13.7828219,22.7028995 C13.7828219,22.9321911 13.6122276,23.1040528 13.3848847,23.1040528 C13.2142586,23.1040528 13.0436643,22.9321911 13.0436643,22.7028995 L13.0436643,20.7551616 C13.0436643,20.5833189 13.2142586,20.4112353 13.3848847,20.4112353 C13.6122276,20.4112353 13.7828219,20.5833189 13.7828219,20.7551616 Z M10.315169,19.3801599 C10.4288246,19.494576 10.4855732,19.7238517 10.3718859,19.8956945 L9.2349812,21.4999909 C9.1782326,21.5572021 9.06435519,21.6143816 8.95069957,21.6143816 L8.72335664,21.5572021 C8.55276232,21.4425325 8.49601372,21.2135103 8.60966934,21.0416676 L9.74660575,19.494576 C9.86029306,19.3227333 10.1445113,19.2655221 10.315169,19.3801599 Z M8.3823581,16.6873741 C8.43907501,16.9166815 8.32545108,17.1457038 8.09807647,17.202896 L6.27888949,17.7758952 L6.16526556,17.7758952 C5.99454449,17.7758952 5.88092056,17.7186713 5.82420365,17.5468412 C5.76729662,17.3175338 5.88092056,17.1457038 6.05157825,17.0310659 L7.87076523,16.4583202 C8.09807647,16.4008903 8.32545108,16.5155282 8.3823581,16.6873741 Z M8.3823581,13.4218425 C8.32545108,13.5936853 8.15466664,13.6508965 7.98438917,13.6508965 L7.87076523,13.6508965 L6.05157825,13.0207051 C5.88092056,12.9635129 5.76729662,12.7916511 5.82420365,12.5623754 C5.88092056,12.3905327 6.10823179,12.2758948 6.27888949,12.3333215 L8.09807647,12.9060672 C8.32545108,13.0207051 8.43907501,13.1925351 8.3823581,13.4218425 Z M8.60966934,9.0675364 C8.49601372,8.89570634 8.55276232,8.66665241 8.72335664,8.55201454 C8.89395097,8.43737667 9.12132558,8.43737667 9.2349812,8.60922258 L10.3718859,10.2135032 C10.4855732,10.3853332 10.4288246,10.6143872 10.315169,10.729025 L10.0876043,10.7862331 C9.97394868,10.7862331 9.86029306,10.729025 9.74660575,10.6718328 L8.60966934,9.0675364 Z M13.0436643,9.35403601 L13.0436643,7.40607947 C13.0436643,7.17702553 13.2142586,7.00516379 13.3848847,7.00516379 C13.6122276,7.00516379 13.7828219,7.17702553 13.7828219,7.40607947 L13.7828219,9.35403601 C13.7828219,9.52586607 13.6122276,9.69774049 13.3848847,9.69774049 C13.2142586,9.69774049 13.0436643,9.52586607 13.0436643,9.35403601 Z M26.9146561,13.1925351 L26.9146561,19.4373711 C26.9146561,19.9529057 26.5166872,20.3540431 26.0050943,20.3540431 C25.4934697,20.3540431 25.0955325,19.9529057 25.0955325,19.4373711 L25.0955325,13.1925351 C24.5838763,12.9060672 24.2426242,12.3333215 24.2426242,11.7029082 C24.2426242,10.729025 25.0384987,9.92700355 26.0050943,9.92700355 C26.971373,9.92700355 27.7673109,10.729025 27.7673109,11.7029082 C27.7673109,12.3333215 27.4262807,12.9060672 26.9146561,13.1925351 Z M13.3279459,23.96352 C8.49601372,23.96352 4.57335813,20.0103513 4.57335813,15.1405233 C4.57335813,10.2706954 8.49601372,6.31755838 13.3279459,6.31755838 C18.1600683,6.31755838 22.0824387,10.2706954 22.0824387,15.1405233 C22.0824387,20.0103513 18.1600683,23.96352 13.3279459,23.96352 Z M26.9146561,1.33333333 L5.14201645,1.33333333 C3.03848447,1.33333333 1.33333333,3.05202682 1.33333333,5.11439943 L1.33333333,25.1666631 C1.33333333,27.2862438 3.03848447,28.9477324 5.14201645,28.9477324 L5.653641,28.9477324 C5.71026286,29.9218374 6.50616904,30.6666667 7.4727963,30.6666667 C8.3823581,30.6666667 9.1782326,29.9218374 9.2349812,28.9477324 L22.7646576,28.9477324 C22.8214062,29.9218374 23.6172807,30.6666667 24.5838763,30.6666667 C25.4934697,30.6666667 26.2893759,29.9218374 26.3460928,28.9477324 L26.9146561,28.9477324 C28.9611543,28.9477324 30.6665906,27.2862438 30.6665906,25.1666631 L30.6665906,5.11439943 C30.6665906,3.05202682 28.9611543,1.33333333 26.9146561,1.33333333 Z" id="Fill-1978" fill="#444444"></path>
        </g>
    </g>
</svg>