<?xml version="1.0" encoding="UTF-8" standalone="no"?>
<svg width="32px" height="32px" viewBox="0 0 32 32" version="1.1" xmlns="http://www.w3.org/2000/svg" xmlns:xlink="http://www.w3.org/1999/xlink">
    <!-- Generator: Sketch 49 (51002) - http://www.bohemiancoding.com/sketch -->
    <title>icons/fraud_prevention_white</title>
    <desc>Created with Sketch.</desc>
    <defs></defs>
    <g id="icons/fraud_prevention_white" stroke="none" stroke-width="1" fill="none" fill-rule="evenodd">
        <rect id="Rectangle-2" x="0" y="0" width="32" height="32"></rect>
        <path d="M28.3269329,6.8445362 L27.4324976,6.55200374 C24.7491242,5.79147035 22.7364813,4.44587671 21.0033677,3.21733536 C19.2144972,2.04747456 17.6491509,0.994408703 15.9719974,0.994408703 C14.2949342,0.994408703 12.7295879,2.04747456 10.9964743,3.21733536 C9.20728779,4.44587671 7.19484802,5.79147035 4.51136173,6.55200374 L3.61688136,6.8445362 L3.61688136,7.83894257 C3.61688136,8.36560299 3.61688136,11.9341397 3.67290912,12.5189379 C3.72866601,13.7474722 3.89643328,14.9176044 4.17600778,16.0877413 C6.41222001,27.0272079 15.1893017,30.5957328 15.5247008,30.7128085 L15.9719974,30.8882676 L16.4191134,30.7128085 C16.8104726,30.5957328 25.5317974,27.0272079 27.8237665,16.0877413 C28.0473358,14.9176044 28.2151934,13.7474722 28.271176,12.5189379 C28.3269329,11.9341397 28.3269329,8.36560299 28.3269329,7.83894257 L28.3269329,6.8445362 Z M29.3333333,6.49360861 L29.3333333,7.83894257 C29.3333333,8.24853901 29.2773959,11.9341397 29.2773959,12.5776114 C29.1655886,13.8645362 28.9978214,15.0930705 28.7742972,16.3216049 C26.37025,27.7877413 17.1460297,31.5317347 16.7546706,31.7074675 L16.1395389,31.9413405 L15.9719974,32 L15.8042527,31.9413405 L15.1893017,31.7074675 C14.7980328,31.5317347 5.57360939,27.7877413 3.1697879,16.3216049 C2.946038,15.0930705 2.77840617,13.8645362 2.7224687,12.5776114 C2.66666667,11.9341397 2.66666667,8.24853901 2.66666667,7.83894257 L2.66666667,6.49360861 C2.66666667,6.25946894 2.77840617,6.0253363 3.00202062,5.9669435 L4.287815,5.61600187 C6.80357916,4.85546848 8.7602169,3.5098725 10.4373704,2.39840215 C12.3382061,1.11147503 14.0153597,0 15.9719974,0 C17.9287029,0 19.6057887,1.11147503 21.5064889,2.39840215 C23.2395799,3.5098725 25.1404834,4.85546848 27.712027,5.61600187 L28.9418387,5.9669435 C29.1655886,6.0253363 29.3333333,6.25946894 29.3333333,6.49360861 Z M15.9719974,29.4842742 C15.9719974,29.4842742 24.4135671,26.20827 26.5938193,15.7952088 L15.9719974,15.7952088 L15.9719974,29.4842742 Z M15.9719974,12.4605357 L15.9719974,15.7952088 L5.40597756,15.7952088 C5.18222766,14.7421336 5.01468613,13.6306703 4.95870351,12.4605357 C4.90267574,11.8754708 4.90267574,8.42400281 4.90267574,7.83894257 C10.4373704,6.20107615 13.2884885,2.34000702 15.9719974,2.34000702 L15.9719974,12.4605357 Z" id="Fill-1805" fill="#FFFFFF"></path>
    </g>
</svg>