<?xml version="1.0" encoding="UTF-8" standalone="no"?>
<svg width="32px" height="32px" viewBox="0 0 32 32" version="1.1" xmlns="http://www.w3.org/2000/svg" xmlns:xlink="http://www.w3.org/1999/xlink">
    <!-- Generator: Sketch 49 (51002) - http://www.bohemiancoding.com/sketch -->
    <title>icons/licensing_white</title>
    <desc>Created with Sketch.</desc>
    <defs></defs>
    <g id="icons/licensing_white" stroke="none" stroke-width="1" fill="none" fill-rule="evenodd">
        <rect id="Rectangle-2" x="0" y="0" width="32" height="32"></rect>
        <path d="M21.0015722,24.3477741 L6.37654496,24.3477741 C5.96697255,24.3477741 5.61604962,24.6956132 5.61604962,25.1013988 C5.61604962,25.5651054 5.96697255,25.9129515 6.37654496,25.9129515 L21.0015722,25.9129515 C21.4111922,25.9129515 21.7621863,25.5651054 21.7621863,25.1013988 C21.7621863,24.6956132 21.4111922,24.3477741 21.0015722,24.3477741 Z M21.0015722,20.6375925 L6.37654496,20.6375925 C5.96697255,20.6375925 5.61604962,20.9854432 5.61604962,21.4491498 C5.61604962,21.8549284 5.96697255,22.2027745 6.37654496,22.2027745 L21.0015722,22.2027745 C21.4111922,22.2027745 21.7621863,21.8549284 21.7621863,21.4491498 C21.7621863,20.9854432 21.4111922,20.6375925 21.0015722,20.6375925 Z M6.37654496,18.4925998 L18.2523157,18.4925998 C18.6616268,18.4925998 19.012526,18.202684 19.012526,17.7389728 C19.012526,17.3331941 18.6616268,16.985355 18.2523157,16.985355 L6.37654496,16.985355 C5.96697255,16.985355 5.61604962,17.3331941 5.61604962,17.7389728 C5.61604962,18.202684 5.96697255,18.4925998 6.37654496,18.4925998 Z M6.37654496,14.840353 L18.2523157,14.840353 C18.6616268,14.840353 19.012526,14.4925116 19.012526,14.0867283 C19.012526,13.6230171 18.6616268,13.2751757 18.2523157,13.2751757 L6.37654496,13.2751757 C5.96697255,13.2751757 5.61604962,13.6230171 5.61604962,14.0867283 C5.61604962,14.4925116 5.96697255,14.840353 6.37654496,14.840353 Z M18.2523157,9.62317489 L6.37654496,9.62317489 C5.96697255,9.62317489 5.61604962,9.97078196 5.61604962,10.3768019 C5.61604962,10.7825759 5.96697255,11.1304197 6.37654496,11.1304197 L18.2523157,11.1304197 C18.6616268,11.1304197 19.012526,10.7825759 19.012526,10.3768019 C19.012526,9.97078196 18.6616268,9.62317489 18.2523157,9.62317489 Z M26.2082395,10.9563806 C23.8098583,10.9563806 21.8792478,12.8693994 21.8792478,15.2461317 C21.8792478,17.6231053 23.8098583,19.536131 26.2082395,19.536131 C28.6069057,19.536131 30.5373262,17.6231053 30.5373262,15.2461317 C30.5373262,12.8693994 28.6069057,10.9563806 26.2082395,10.9563806 Z M31.1224195,15.2461317 C31.1224195,12.5215579 28.9578524,10.3186211 26.2082395,10.3186211 C23.4586741,10.3186211 21.2357188,12.5215579 21.2357188,15.2461317 C21.2357188,17.9130211 23.4586741,20.1157027 26.2082395,20.1157027 C28.9578524,20.1157027 31.1224195,17.9130211 31.1224195,15.2461317 Z M29.133397,20.1738813 L29.133397,25.6230426 L26.2666752,23.3042383 L23.283177,25.6230426 L23.283177,20.1738813 C21.5282536,19.1882826 20.3581383,17.3331941 20.3581383,15.2461317 C20.3581383,12.0578398 22.9907135,9.44913816 26.2082395,9.44913816 C29.425813,9.44913816 32,12.0578398 32,15.2461317 C32,17.3331941 30.8298847,19.1882826 29.133397,20.1738813 Z M26.2082395,24.3477741 L27.4367904,25.2751919 L27.4367904,26.9564804 C27.4367904,28.9853736 25.7402789,30.6666667 23.6927969,30.6666667 L3.744041,30.6666667 C1.69627398,30.6666667 0,28.9853736 0,26.9564804 L0,8.17386502 C0,7.94188876 0.11684762,7.65197528 0.292297208,7.47818218 L5.90858437,1.62299623 C6.14242214,1.44919617 6.37654496,1.33333333 6.61047774,1.33333333 L23.6927969,1.33333333 C25.7402789,1.33333333 27.4367904,2.95644093 27.4367904,5.04326439 L27.4367904,8.75344372 C27.0271705,8.69551346 26.6178594,8.63757624 26.2082395,8.63757624 C25.9744017,8.63757624 25.7402789,8.63757624 25.5061561,8.69551346 L25.5061561,5.04326439 C25.5061561,4.05790938 24.6872251,3.24635674 23.6927969,3.24635674 L7.60507215,3.24635674 L7.60507215,5.44904767 C7.60507215,7.47818218 5.90858437,9.10128282 3.86081736,9.10128282 L1.9303968,9.10128282 L1.9303968,26.9564804 C1.9303968,27.94184 2.74935158,28.7533927 3.744041,28.7533927 L23.6927969,28.7533927 C24.6872251,28.7533927 25.5061561,27.94184 25.5061561,26.9564804 L25.5061561,24.9273551 L26.2082395,24.3477741 Z" id="Fill-1785" fill="#FFFFFF"></path>
    </g>
</svg>