<?xml version="1.0" encoding="UTF-8" standalone="no"?>
<svg width="32px" height="32px" viewBox="0 0 32 32" version="1.1" xmlns="http://www.w3.org/2000/svg" xmlns:xlink="http://www.w3.org/1999/xlink">
    <!-- Generator: Sketch 48.1 (47250) - http://www.bohemiancoding.com/sketch -->
    <title>icons/reporting</title>
    <desc>Created with Sketch.</desc>
    <defs></defs>
    <g id="Symbols" stroke="none" stroke-width="1" fill="none" fill-rule="evenodd">
        <g id="icons/reporting">
            <rect id="Rectangle-2" x="0" y="0" width="32" height="32"></rect>
            <path d="M24.8342194,17.959738 L26.7782834,17.959738 L26.7782834,15.9706679 L24.8342194,15.9706679 L24.8342194,17.959738 Z M22.8329374,15.9706679 L20.8888734,15.9706679 L20.8888734,17.959738 L22.8329374,17.959738 L22.8329374,15.9706679 Z M23.5190886,14.2154732 C24.8914141,14.2154732 26.0921322,13.04561 26.0921322,11.5829384 C26.0921322,10.1789355 24.8914141,8.95040356 23.5190886,8.95040356 C22.0895915,8.95040356 20.9458361,10.1789355 20.9458361,11.5829384 C20.9458361,13.04561 22.0895915,14.2154732 23.5190886,14.2154732 Z M28.7223242,6.49360861 L3.33459208,6.49360861 L3.33459208,20.0072055 L28.7223242,20.0072055 L28.7223242,6.49360861 Z M30.6666667,1.98880571 L30.6666667,21.9962732 L18.9445542,21.9962732 L18.9445542,25.740269 L26.6638475,32 L24.7770015,32 L18.9445542,27.9048076 L18.9445542,27.9632074 L15.0564261,27.9632074 L15.0564261,27.9048076 L9.22400207,32 L7.33710958,32 L15.0564261,25.740269 L15.0564261,21.9962732 L1.33333333,21.9962732 L1.33333333,1.98880571 L15.0564261,1.98880571 L15.0564261,0 L18.9445542,0 L18.9445542,1.98880571 L30.6666667,1.98880571 Z M4.82130707,17.3162709 L6.70817635,11.7000023 L9.79576376,16.5557375 L12.6547811,11.8754708 L15.2852283,16.2632004 L17.3436818,9.82800795 C17.4006445,9.53547783 17.6866413,9.41840215 17.9726614,9.47707334 C18.2012083,9.59413733 18.3156209,9.88640309 18.258403,10.1205404 L15.5709931,18.6616072 L12.6547811,13.8061411 L9.79576376,18.3690724 L6.99391798,13.9816002 L5.73600513,17.608539 C5.62163887,17.9010738 5.39304556,18.0181378 5.1070719,17.959738 C4.87826977,17.8426717 4.7068944,17.5501392 4.82130707,17.3162709 Z" id="Fill-1803" fill="#444444"></path>
        </g>
    </g>
</svg>